<?xml version="1.0" encoding="UTF-8" standalone="no"?>
<!DOCTYPE svg PUBLIC "-//W3C//DTD SVG 1.1//EN"
 "http://www.w3.org/Graphics/SVG/1.1/DTD/svg11.dtd">
<!-- Generated by graphviz version 5.0.0 (20220707.1540)
 -->
<!-- Title: dependencies Pages: 1 -->
<svg width="1026pt" height="247pt"
 viewBox="0.00 0.00 1026.00 246.80" xmlns="http://www.w3.org/2000/svg" xmlns:xlink="http://www.w3.org/1999/xlink">
<g id="graph0" class="graph" transform="scale(1 1) rotate(0) translate(4 242.8)">
<title>dependencies</title>
<polygon fill="white" stroke="transparent" points="-4,4 -4,-242.8 1022,-242.8 1022,4 -4,4"/>
<text text-anchor="middle" x="509" y="-8.2" font-family="sans-serif" font-size="14.00">dependencies</text>
<g id="clust1" class="cluster">
<title>cluster_AppModule</title>
<polygon fill="none" stroke="black" stroke-dasharray="1,5" points="8,-32.8 8,-230.8 1010,-230.8 1010,-32.8 8,-32.8"/>
</g>
<g id="clust2" class="cluster">
<title>cluster_AppModule_declarations</title>
<polygon fill="none" stroke="black" points="168,-40.8 168,-92.8 1002,-92.8 1002,-40.8 168,-40.8"/>
</g>
<g id="clust9" class="cluster">
<title>cluster_AppModule_imports</title>
<polygon fill="none" stroke="black" points="16,-40.8 16,-92.8 160,-92.8 160,-40.8 16,-40.8"/>
</g>
<g id="clust11" class="cluster">
<title>cluster_AppModule_bootstrap</title>
<polygon fill="none" stroke="black" points="478,-170.8 478,-222.8 602,-222.8 602,-170.8 478,-170.8"/>
</g>
<!-- AppComponent -->
<g id="node1" class="node">
<title>AppComponent</title>
<polygon fill="#ffffb3" stroke="black" points="993.94,-84.8 888.06,-84.8 888.06,-48.8 993.94,-48.8 993.94,-84.8"/>
<text text-anchor="middle" x="941" y="-62.6" font-family="Times,serif" font-size="14.00">AppComponent</text>
</g>
<!-- AppModule -->
<g id="node7" class="node">
<title>AppModule</title>
<polygon fill="#8dd3c7" stroke="black" points="581.66,-149.8 578.66,-153.8 557.66,-153.8 554.66,-149.8 498.34,-149.8 498.34,-113.8 581.66,-113.8 581.66,-149.8"/>
<text text-anchor="middle" x="540" y="-127.6" font-family="Times,serif" font-size="14.00">AppModule</text>
</g>
<!-- AppComponent&#45;&gt;AppModule -->
<g id="edge1" class="edge">
<title>AppComponent&#45;&gt;AppModule</title>
<path fill="none" stroke="black" d="M941,-85.09C941,-107.01 941,-140.8 941,-140.8 941,-140.8 591.78,-140.8 591.78,-140.8"/>
<polygon fill="black" stroke="black" points="591.78,-137.3 581.78,-140.8 591.78,-144.3 591.78,-137.3"/>
</g>
<!-- FooterComponent -->
<g id="node2" class="node">
<title>FooterComponent</title>
<polygon fill="#ffffb3" stroke="black" points="869.88,-84.8 752.12,-84.8 752.12,-48.8 869.88,-48.8 869.88,-84.8"/>
<text text-anchor="middle" x="811" y="-62.6" font-family="Times,serif" font-size="14.00">FooterComponent</text>
</g>
<!-- FooterComponent&#45;&gt;AppModule -->
<g id="edge2" class="edge">
<title>FooterComponent&#45;&gt;AppModule</title>
<path fill="none" stroke="black" d="M811,-84.91C811,-104.14 811,-131.8 811,-131.8 811,-131.8 591.75,-131.8 591.75,-131.8"/>
<polygon fill="black" stroke="black" points="591.75,-128.3 581.75,-131.8 591.75,-135.3 591.75,-128.3"/>
</g>
<!-- HeaderComponent -->
<g id="node3" class="node">
<title>HeaderComponent</title>
<polygon fill="#ffffb3" stroke="black" points="733.75,-84.8 612.25,-84.8 612.25,-48.8 733.75,-48.8 733.75,-84.8"/>
<text text-anchor="middle" x="673" y="-62.6" font-family="Times,serif" font-size="14.00">HeaderComponent</text>
</g>
<!-- HeaderComponent&#45;&gt;AppModule -->
<g id="edge3" class="edge">
<title>HeaderComponent&#45;&gt;AppModule</title>
<path fill="none" stroke="black" d="M673,-84.83C673,-101.2 673,-122.8 673,-122.8 673,-122.8 591.72,-122.8 591.72,-122.8"/>
<polygon fill="black" stroke="black" points="591.72,-119.3 581.72,-122.8 591.72,-126.3 591.72,-119.3"/>
</g>
<!-- IntroComponent -->
<g id="node4" class="node">
<title>IntroComponent</title>
<polygon fill="#ffffb3" stroke="black" points="594.05,-84.8 485.95,-84.8 485.95,-48.8 594.05,-48.8 594.05,-84.8"/>
<text text-anchor="middle" x="540" y="-62.6" font-family="Times,serif" font-size="14.00">IntroComponent</text>
</g>
<!-- IntroComponent&#45;&gt;AppModule -->
<g id="edge4" class="edge">
<title>IntroComponent&#45;&gt;AppModule</title>
<path fill="none" stroke="black" d="M540,-84.91C540,-84.91 540,-103.79 540,-103.79"/>
<polygon fill="black" stroke="black" points="536.5,-103.79 540,-113.79 543.5,-103.79 536.5,-103.79"/>
</g>
<!-- LancamentosComponent -->
<g id="node5" class="node">
<title>LancamentosComponent</title>
<polygon fill="#ffffb3" stroke="black" points="467.97,-84.8 312.03,-84.8 312.03,-48.8 467.97,-48.8 467.97,-84.8"/>
<text text-anchor="middle" x="390" y="-62.6" font-family="Times,serif" font-size="14.00">LancamentosComponent</text>
</g>
<!-- LancamentosComponent&#45;&gt;AppModule -->
<g id="edge5" class="edge">
<title>LancamentosComponent&#45;&gt;AppModule</title>
<path fill="none" stroke="black" d="M390,-84.83C390,-101.2 390,-122.8 390,-122.8 390,-122.8 488.22,-122.8 488.22,-122.8"/>
<polygon fill="black" stroke="black" points="488.22,-126.3 498.22,-122.8 488.22,-119.3 488.22,-126.3"/>
</g>
<!-- ModalComponent -->
<g id="node6" class="node">
<title>ModalComponent</title>
<polygon fill="#ffffb3" stroke="black" points="293.88,-84.8 176.12,-84.8 176.12,-48.8 293.88,-48.8 293.88,-84.8"/>
<text text-anchor="middle" x="235" y="-62.6" font-family="Times,serif" font-size="14.00">ModalComponent</text>
</g>
<!-- ModalComponent&#45;&gt;AppModule -->
<g id="edge6" class="edge">
<title>ModalComponent&#45;&gt;AppModule</title>
<path fill="none" stroke="black" d="M235,-84.91C235,-104.14 235,-131.8 235,-131.8 235,-131.8 488.23,-131.8 488.23,-131.8"/>
<polygon fill="black" stroke="black" points="488.23,-135.3 498.23,-131.8 488.23,-128.3 488.23,-135.3"/>
</g>
<!-- AppComponent  -->
<g id="node9" class="node">
<title>AppComponent </title>
<polygon fill="#80b1d3" stroke="black" points="594.44,-214.8 485.56,-214.8 485.56,-178.8 594.44,-178.8 594.44,-214.8"/>
<text text-anchor="middle" x="540" y="-192.6" font-family="Times,serif" font-size="14.00">AppComponent </text>
</g>
<!-- AppModule&#45;&gt;AppComponent  -->
<g id="edge8" class="edge">
<title>AppModule&#45;&gt;AppComponent </title>
<path fill="none" stroke="black" stroke-dasharray="1,5" d="M540,-149.91C540,-149.91 540,-168.79 540,-168.79"/>
<polygon fill="black" stroke="black" points="536.5,-168.79 540,-178.79 543.5,-168.79 536.5,-168.79"/>
</g>
<!-- AppRoutingModule -->
<g id="node8" class="node">
<title>AppRoutingModule</title>
<polygon fill="#8dd3c7" stroke="black" points="152.28,-84.8 149.28,-88.8 128.28,-88.8 125.28,-84.8 23.72,-84.8 23.72,-48.8 152.28,-48.8 152.28,-84.8"/>
<text text-anchor="middle" x="88" y="-62.6" font-family="Times,serif" font-size="14.00">AppRoutingModule</text>
</g>
<!-- AppRoutingModule&#45;&gt;AppModule -->
<g id="edge7" class="edge">
<title>AppRoutingModule&#45;&gt;AppModule</title>
<path fill="none" stroke="black" d="M88,-85.09C88,-107.01 88,-140.8 88,-140.8 88,-140.8 488.29,-140.8 488.29,-140.8"/>
<polygon fill="black" stroke="black" points="488.29,-144.3 498.29,-140.8 488.29,-137.3 488.29,-144.3"/>
</g>
</g>
</svg>
