<?xml version="1.0" encoding="UTF-8" standalone="no"?>
<!DOCTYPE svg PUBLIC "-//W3C//DTD SVG 1.1//EN"
 "http://www.w3.org/Graphics/SVG/1.1/DTD/svg11.dtd">
<!-- Generated by graphviz version 5.0.0 (20220707.1540)
 -->
<!-- Title: dependencies Pages: 1 -->
<svg width="1026pt" height="247pt"
 viewBox="0.00 0.00 1026.00 246.80" xmlns="http://www.w3.org/2000/svg" xmlns:xlink="http://www.w3.org/1999/xlink">
<g id="graph0" class="graph" transform="scale(1 1) rotate(0) translate(4 242.8)">
<title>dependencies</title>
<polygon fill="white" stroke="transparent" points="-4,4 -4,-242.8 1022,-242.8 1022,4 -4,4"/>
<text text-anchor="middle" x="509" y="-8.2" font-family="sans-serif" font-size="14.00">dependencies</text>
<g id="clust1" class="cluster">
<title>cluster_AppModule</title>
<polygon fill="none" stroke="black" stroke-dasharray="1,5" points="8,-32.8 8,-230.8 1010,-230.8 1010,-32.8 8,-32.8"/>
</g>
<g id="clust11" class="cluster">
<title>cluster_AppModule_bootstrap</title>
<polygon fill="none" stroke="black" points="459,-170.8 459,-222.8 583,-222.8 583,-170.8 459,-170.8"/>
</g>
<g id="clust9" class="cluster">
<title>cluster_AppModule_imports</title>
<polygon fill="none" stroke="black" points="858,-40.8 858,-92.8 1002,-92.8 1002,-40.8 858,-40.8"/>
</g>
<g id="clust2" class="cluster">
<title>cluster_AppModule_declarations</title>
<polygon fill="none" stroke="black" points="16,-40.8 16,-92.8 850,-92.8 850,-40.8 16,-40.8"/>
</g>
<!-- AppComponent -->
<g id="node1" class="node">
<title>AppComponent</title>
<polygon fill="#ffffb3" stroke="black" points="841.94,-84.8 736.06,-84.8 736.06,-48.8 841.94,-48.8 841.94,-84.8"/>
<text text-anchor="middle" x="789" y="-62.6" font-family="Times,serif" font-size="14.00">AppComponent</text>
</g>
<!-- AppModule -->
<g id="node7" class="node">
<title>AppModule</title>
<polygon fill="#8dd3c7" stroke="black" points="562.66,-149.8 559.66,-153.8 538.66,-153.8 535.66,-149.8 479.34,-149.8 479.34,-113.8 562.66,-113.8 562.66,-149.8"/>
<text text-anchor="middle" x="521" y="-127.6" font-family="Times,serif" font-size="14.00">AppModule</text>
</g>
<!-- AppComponent&#45;&gt;AppModule -->
<g id="edge1" class="edge">
<title>AppComponent&#45;&gt;AppModule</title>
<path fill="none" stroke="black" d="M789,-84.91C789,-104.14 789,-131.8 789,-131.8 789,-131.8 572.88,-131.8 572.88,-131.8"/>
<polygon fill="black" stroke="black" points="572.88,-128.3 562.88,-131.8 572.87,-135.3 572.88,-128.3"/>
</g>
<!-- FooterComponent -->
<g id="node2" class="node">
<title>FooterComponent</title>
<polygon fill="#ffffb3" stroke="black" points="717.88,-84.8 600.12,-84.8 600.12,-48.8 717.88,-48.8 717.88,-84.8"/>
<text text-anchor="middle" x="659" y="-62.6" font-family="Times,serif" font-size="14.00">FooterComponent</text>
</g>
<!-- FooterComponent&#45;&gt;AppModule -->
<g id="edge2" class="edge">
<title>FooterComponent&#45;&gt;AppModule</title>
<path fill="none" stroke="black" d="M659,-84.83C659,-101.2 659,-122.8 659,-122.8 659,-122.8 572.78,-122.8 572.78,-122.8"/>
<polygon fill="black" stroke="black" points="572.78,-119.3 562.78,-122.8 572.78,-126.3 572.78,-119.3"/>
</g>
<!-- HeaderComponent -->
<g id="node3" class="node">
<title>HeaderComponent</title>
<polygon fill="#ffffb3" stroke="black" points="581.75,-84.8 460.25,-84.8 460.25,-48.8 581.75,-48.8 581.75,-84.8"/>
<text text-anchor="middle" x="521" y="-62.6" font-family="Times,serif" font-size="14.00">HeaderComponent</text>
</g>
<!-- HeaderComponent&#45;&gt;AppModule -->
<g id="edge3" class="edge">
<title>HeaderComponent&#45;&gt;AppModule</title>
<path fill="none" stroke="black" d="M521,-84.91C521,-84.91 521,-103.79 521,-103.79"/>
<polygon fill="black" stroke="black" points="517.5,-103.79 521,-113.79 524.5,-103.79 517.5,-103.79"/>
</g>
<!-- IntroComponent -->
<g id="node4" class="node">
<title>IntroComponent</title>
<polygon fill="#ffffb3" stroke="black" points="442.05,-84.8 333.95,-84.8 333.95,-48.8 442.05,-48.8 442.05,-84.8"/>
<text text-anchor="middle" x="388" y="-62.6" font-family="Times,serif" font-size="14.00">IntroComponent</text>
</g>
<!-- IntroComponent&#45;&gt;AppModule -->
<g id="edge4" class="edge">
<title>IntroComponent&#45;&gt;AppModule</title>
<path fill="none" stroke="black" d="M388,-84.83C388,-101.2 388,-122.8 388,-122.8 388,-122.8 469.28,-122.8 469.28,-122.8"/>
<polygon fill="black" stroke="black" points="469.28,-126.3 479.28,-122.8 469.28,-119.3 469.28,-126.3"/>
</g>
<!-- LancamentosComponent -->
<g id="node5" class="node">
<title>LancamentosComponent</title>
<polygon fill="#ffffb3" stroke="black" points="315.97,-84.8 160.03,-84.8 160.03,-48.8 315.97,-48.8 315.97,-84.8"/>
<text text-anchor="middle" x="238" y="-62.6" font-family="Times,serif" font-size="14.00">LancamentosComponent</text>
</g>
<!-- LancamentosComponent&#45;&gt;AppModule -->
<g id="edge5" class="edge">
<title>LancamentosComponent&#45;&gt;AppModule</title>
<path fill="none" stroke="black" d="M238,-84.91C238,-104.14 238,-131.8 238,-131.8 238,-131.8 469.24,-131.8 469.24,-131.8"/>
<polygon fill="black" stroke="black" points="469.24,-135.3 479.24,-131.8 469.24,-128.3 469.24,-135.3"/>
</g>
<!-- ModalComponent -->
<g id="node6" class="node">
<title>ModalComponent</title>
<polygon fill="#ffffb3" stroke="black" points="141.88,-84.8 24.12,-84.8 24.12,-48.8 141.88,-48.8 141.88,-84.8"/>
<text text-anchor="middle" x="83" y="-62.6" font-family="Times,serif" font-size="14.00">ModalComponent</text>
</g>
<!-- ModalComponent&#45;&gt;AppModule -->
<g id="edge6" class="edge">
<title>ModalComponent&#45;&gt;AppModule</title>
<path fill="none" stroke="black" d="M83,-85.09C83,-107.01 83,-140.8 83,-140.8 83,-140.8 469,-140.8 469,-140.8"/>
<polygon fill="black" stroke="black" points="469,-144.3 479,-140.8 469,-137.3 469,-144.3"/>
</g>
<!-- AppComponent  -->
<g id="node9" class="node">
<title>AppComponent </title>
<polygon fill="#80b1d3" stroke="black" points="575.44,-214.8 466.56,-214.8 466.56,-178.8 575.44,-178.8 575.44,-214.8"/>
<text text-anchor="middle" x="521" y="-192.6" font-family="Times,serif" font-size="14.00">AppComponent </text>
</g>
<!-- AppModule&#45;&gt;AppComponent  -->
<g id="edge8" class="edge">
<title>AppModule&#45;&gt;AppComponent </title>
<path fill="none" stroke="black" stroke-dasharray="1,5" d="M521,-149.91C521,-149.91 521,-168.79 521,-168.79"/>
<polygon fill="black" stroke="black" points="517.5,-168.79 521,-178.79 524.5,-168.79 517.5,-168.79"/>
</g>
<!-- AppRoutingModule -->
<g id="node8" class="node">
<title>AppRoutingModule</title>
<polygon fill="#8dd3c7" stroke="black" points="994.28,-84.8 991.28,-88.8 970.28,-88.8 967.28,-84.8 865.72,-84.8 865.72,-48.8 994.28,-48.8 994.28,-84.8"/>
<text text-anchor="middle" x="930" y="-62.6" font-family="Times,serif" font-size="14.00">AppRoutingModule</text>
</g>
<!-- AppRoutingModule&#45;&gt;AppModule -->
<g id="edge7" class="edge">
<title>AppRoutingModule&#45;&gt;AppModule</title>
<path fill="none" stroke="black" d="M930,-85.09C930,-107.01 930,-140.8 930,-140.8 930,-140.8 572.85,-140.8 572.85,-140.8"/>
<polygon fill="black" stroke="black" points="572.85,-137.3 562.85,-140.8 572.85,-144.3 572.85,-137.3"/>
</g>
</g>
</svg>
